<svg width="27" height="20" viewBox="0 0 27 20" fill="none" xmlns="http://www.w3.org/2000/svg">
<path d="M16 14.2501H9.75M22.25 14.2501H26V10.3126C26.0009 10.0151 25.8956 9.72706 25.7031 9.50026C25.5107 9.27336 25.2436 9.12266 24.95 9.07506L18.5 8.00006L15.125 3.50006C15.0086 3.34481 14.8576 3.21881 14.684 3.13203C14.5104 3.04524 14.3191 3.00006 14.125 3.00006H5.05C4.58409 2.99682 4.12654 3.12384 3.72898 3.36679C3.33141 3.60975 3.00965 3.95897 2.8 4.37506L1.8 6.41256C1.27518 7.45586 1.00124 8.60726 1 9.77506V14.2501H3.5" stroke="black" stroke-width="0.9" stroke-linecap="round" stroke-linejoin="round"/>
<path d="M6.625 18C8.35089 18 9.75 16.6009 9.75 14.875C9.75 13.1491 8.35089 11.75 6.625 11.75C4.89911 11.75 3.5 13.1491 3.5 14.875C3.5 16.6009 4.89911 18 6.625 18Z" stroke="black" stroke-width="0.9" stroke-linecap="round" stroke-linejoin="round"/>
<path d="M19.125 18C20.8509 18 22.25 16.6009 22.25 14.875C22.25 13.1491 20.8509 11.75 19.125 11.75C17.3991 11.75 16 13.1491 16 14.875C16 16.6009 17.3991 18 19.125 18Z" stroke="black" stroke-width="0.9" stroke-linecap="round" stroke-linejoin="round"/>
</svg>
