<svg width="15" height="15" viewBox="0 0 15 15" fill="none" xmlns="http://www.w3.org/2000/svg">
<path d="M6.92015 10.0958C9.59757 10.0958 11.768 7.92535 11.768 5.24791C11.768 2.57048 9.59757 0.399994 6.92015 0.399994C4.24274 0.399994 2.07227 2.57048 2.07227 5.24791C2.07227 7.92535 4.24274 10.0958 6.92015 10.0958Z" stroke="black" stroke-width="0.8" stroke-linecap="round" stroke-linejoin="round"/>
<path d="M6.92024 7.40262C8.1102 7.40262 9.07486 6.43795 9.07486 5.24798C9.07486 4.05801 8.1102 3.09335 6.92024 3.09335C5.73028 3.09335 4.76562 4.05801 4.76562 5.24798C4.76562 6.43795 5.73028 7.40262 6.92024 7.40262Z" stroke="black" stroke-width="0.8" stroke-linecap="round" stroke-linejoin="round"/>
<path d="M5.98254 10.0096L5.03451 13.9957C5.01575 14.0715 4.98106 14.1424 4.93277 14.2037C4.88447 14.265 4.82367 14.3153 4.75441 14.3512C4.68131 14.383 4.60248 14.3993 4.52279 14.3993C4.4431 14.3993 4.36427 14.383 4.29117 14.3512L0.714503 12.7891C0.63948 12.7537 0.573466 12.7017 0.521416 12.637C0.469366 12.5724 0.432632 12.4968 0.413972 12.4159C0.395313 12.3351 0.395212 12.2511 0.413677 12.1701C0.432142 12.0892 0.468693 12.0136 0.520587 11.9488L3.28927 8.47986" stroke="black" stroke-width="0.8" stroke-linecap="round" stroke-linejoin="round"/>
<path d="M8.13721 9.95582L9.10678 13.9958C9.12606 14.0728 9.16214 14.1446 9.21243 14.2061C9.26271 14.2675 9.32597 14.3171 9.39766 14.3513C9.46875 14.3834 9.54588 14.4 9.62389 14.4C9.70191 14.4 9.77903 14.3834 9.85013 14.3513L13.4052 12.7892C13.4814 12.7541 13.5483 12.7018 13.6007 12.6363C13.6531 12.5709 13.6894 12.4941 13.7069 12.4121C13.7273 12.3319 13.7282 12.248 13.7094 12.1674C13.6907 12.0867 13.6529 12.0118 13.5992 11.9489L10.712 8.27521" stroke="black" stroke-width="0.8" stroke-linecap="round" stroke-linejoin="round"/>
</svg>
