<svg width="27" height="31" viewBox="0 0 27 31" fill="none" xmlns="http://www.w3.org/2000/svg">
<path d="M21.2691 7.42307C21.2691 9.5652 20.4181 11.6196 18.9034 13.1343C17.3887 14.649 15.3343 15.5 13.1921 15.5C11.05 15.5 8.99562 14.649 7.48091 13.1343C5.96619 11.6196 5.11523 9.5652 5.11523 7.42307V0.5H21.2691V7.42307Z" stroke="black" stroke-linecap="round" stroke-linejoin="round"/>
<path d="M21.2691 23.5769C21.2691 21.4348 20.4181 19.3804 18.9034 17.8657C17.3887 16.351 15.3343 15.5 13.1921 15.5C11.05 15.5 8.99562 16.351 7.48091 17.8657C5.96619 19.3804 5.11523 21.4348 5.11523 23.5769V30.5H21.2691V23.5769Z" stroke="black" stroke-linecap="round" stroke-linejoin="round"/>
<path d="M0.5 0.5H25.8846" stroke="black" stroke-linecap="round" stroke-linejoin="round"/>
<path d="M0.5 30.5H25.8846" stroke="black" stroke-linecap="round" stroke-linejoin="round"/>
</svg>
