<svg width="27" height="31" viewBox="0 0 27 31" fill="none" xmlns="http://www.w3.org/2000/svg">
<path d="M25.8846 30.5H3.96154C3.04348 30.5 2.16303 30.1353 1.51386 29.4861C0.864697 28.837 0.5 27.9565 0.5 27.0385C0.5 26.1204 0.864697 25.2399 1.51386 24.5908C2.16303 23.9416 3.04348 23.5769 3.96154 23.5769H23.5769C24.189 23.5769 24.7759 23.3338 25.2087 22.901C25.6415 22.4682 25.8846 21.8813 25.8846 21.2692V2.80769C25.8846 2.19565 25.6415 1.60868 25.2087 1.17591C24.7759 0.743131 24.189 0.5 23.5769 0.5H3.96154C3.05925 0.499679 2.1925 0.851678 1.54593 1.48101C0.899352 2.11034 0.524061 2.96727 0.5 3.86923V26.9462" stroke="black" stroke-linecap="round" stroke-linejoin="round"/>
<path d="M23.5771 23.5767V30.4997" stroke="black" stroke-linecap="round" stroke-linejoin="round"/>
</svg>
