<svg width="14" height="14" viewBox="0 0 14 14" fill="none" xmlns="http://www.w3.org/2000/svg">
<path d="M7.13184 0.00292969C10.937 0.0732294 13.9999 3.17805 14 7C13.9998 10.8659 10.8659 14 7 14C3.1343 13.9997 0.000197758 10.8657 0 7C6.40734e-05 3.13417 3.13422 0.000278616 7 0H7.06055C7.08428 0 7.10825 0.00221987 7.13184 0.00292969ZM4.60352 11.2402C4.65272 11.3428 4.70334 11.4428 4.75586 11.5391C5.31486 12.5637 6.02306 13.1725 6.75781 13.3047V11.2402H4.60352ZM7.36426 13.3047C8.09895 13.1724 8.80726 12.5637 9.36621 11.5391C9.41868 11.4429 9.46842 11.3427 9.51758 11.2402H7.36426V13.3047ZM2.2168 11.2402C3.00579 12.1296 4.03897 12.7962 5.21094 13.1377C4.83606 12.7882 4.50322 12.3416 4.22363 11.8291C4.12198 11.6427 4.02679 11.4458 3.9375 11.2402H2.2168ZM10.1836 11.2402C10.0943 11.4457 10 11.6428 9.89844 11.8291C9.63314 12.3154 9.31929 12.7419 8.96777 13.083C10.0664 12.7276 11.0354 12.0843 11.7842 11.2402H10.1836ZM0.613281 7.27246C0.665592 8.5184 1.07421 9.67161 1.74023 10.6338H3.70312C3.36181 9.64711 3.1542 8.49889 3.125 7.27246H0.613281ZM7.36426 10.6338H9.77539C10.134 9.67696 10.3584 8.52467 10.3896 7.27246H7.36426V10.6338ZM10.9961 7.27246C10.9669 8.49885 10.7602 9.64713 10.4189 10.6338H12.2607C12.9267 9.67162 13.3354 8.51838 13.3877 7.27246H10.9961ZM3.73242 7.27246C3.76372 8.52456 3.9872 9.67701 4.3457 10.6338H6.75781V7.27246H3.73242ZM1.74316 3.36133C1.08611 4.30895 0.678032 5.44215 0.615234 6.66699H3.125C3.15363 5.46362 3.35373 4.33543 3.68359 3.36133H1.74316ZM7.36426 6.66699H10.3896C10.359 5.43909 10.1433 4.30702 9.79688 3.36133H7.36426V6.66699ZM10.4385 3.36133C10.7683 4.33541 10.9675 5.46366 10.9961 6.66699H13.3857C13.323 5.44218 12.9148 4.30894 12.2578 3.36133H10.4385ZM4.32422 3.36133C3.97783 4.30697 3.76308 5.4392 3.73242 6.66699H6.75781V3.36133H4.32422ZM5.11621 0.890625C3.98533 1.23955 2.9878 1.89174 2.2207 2.75488H3.91406C4.01012 2.52908 4.11284 2.31348 4.22363 2.11035C4.47973 1.64085 4.77951 1.2257 5.11621 0.890625ZM7.36426 2.75488H9.54395C9.48662 2.63263 9.42816 2.51397 9.36621 2.40039C8.80717 1.37555 8.0991 0.765013 7.36426 0.632812V2.75488ZM9.05566 0.944336C9.3715 1.26995 9.65548 1.66492 9.89844 2.11035C10.0092 2.31349 10.1119 2.52906 10.208 2.75488H11.7803C11.052 1.93542 10.1163 1.30473 9.05566 0.944336ZM6.75781 0.632812C6.02291 0.764926 5.31495 1.3755 4.75586 2.40039C4.69386 2.51406 4.63451 2.63253 4.57715 2.75488H6.75781V0.632812Z" fill="black"/>
</svg>
