<svg width="14" height="14" viewBox="0 0 14 14" fill="none" xmlns="http://www.w3.org/2000/svg">
<path d="M7.4384 0.763076L9.0284 3.97308C9.06456 4.05455 9.12145 4.12512 9.19338 4.17776C9.26532 4.2304 9.3498 4.26326 9.4384 4.27308L12.9484 4.79308C13.05 4.80614 13.1458 4.84785 13.2247 4.91333C13.3035 4.97882 13.362 5.06537 13.3935 5.16289C13.4249 5.26041 13.428 5.36486 13.4023 5.46406C13.3766 5.56325 13.3232 5.65309 13.2484 5.72308L10.7184 8.23308C10.6538 8.2934 10.6054 8.36892 10.5774 8.45275C10.5495 8.53658 10.5429 8.62607 10.5584 8.71308L11.1684 12.2431C11.1861 12.3445 11.1749 12.4489 11.1362 12.5443C11.0975 12.6397 11.0327 12.7223 10.9494 12.7827C10.866 12.8431 10.7674 12.879 10.6647 12.8861C10.562 12.8932 10.4593 12.8714 10.3684 12.8231L7.2084 11.1531C7.12748 11.1134 7.03854 11.0927 6.9484 11.0927C6.85826 11.0927 6.76931 11.1134 6.6884 11.1531L3.5284 12.8231C3.43749 12.8714 3.33483 12.8932 3.23212 12.8861C3.12941 12.879 3.03077 12.8431 2.94741 12.7827C2.86406 12.7223 2.79934 12.6397 2.76062 12.5443C2.7219 12.4489 2.71074 12.3445 2.7284 12.2431L3.3384 8.67308C3.35386 8.58607 3.34732 8.49658 3.31937 8.41275C3.29143 8.32892 3.24297 8.2534 3.1784 8.19308L0.618397 5.72308C0.54266 5.65117 0.489397 5.55885 0.465061 5.45729C0.440726 5.35573 0.446361 5.2493 0.481284 5.15087C0.516208 5.05245 0.578922 4.96627 0.661828 4.90277C0.744735 4.83926 0.844277 4.80116 0.948397 4.79308L4.4584 4.27308C4.547 4.26326 4.63147 4.2304 4.70341 4.17776C4.77535 4.12512 4.83223 4.05455 4.8684 3.97308L6.4584 0.763076C6.5017 0.669585 6.57084 0.590432 6.65766 0.53496C6.74448 0.479488 6.84537 0.450012 6.9484 0.450012C7.05143 0.450012 7.15231 0.479488 7.23913 0.53496C7.32596 0.590432 7.3951 0.669585 7.4384 0.763076V0.763076Z" stroke="black" stroke-width="0.9" stroke-linecap="round" stroke-linejoin="round"/>
</svg>
