<svg width="1452" height="337" viewBox="0 0 1452 337" fill="none" xmlns="http://www.w3.org/2000/svg">
<path d="M246.763 96.1484H213.255C213.016 96.1484 211.97 97.8486 211.561 97.2895C216.653 28.9043 122.915 23.8949 77.2103 41.73C35.6433 57.9563 32.4835 100.564 71.0611 122.553C136.213 159.673 265.165 144.736 255.822 253.938C248.479 339.861 127.745 348.294 64.7072 327.172C20.2873 312.281 -2.79787 277.935 0.271063 230.591H36.6208V249.396C36.6208 254.348 42.3381 267.037 45.2366 271.51C80.3474 325.541 246.115 312.452 216.972 229.142C204.219 192.684 137.395 182.882 104.774 173.057C54.7048 157.972 3.02173 139.738 8.23892 76.225C15.1952 -8.5233 157.594 -15.7692 211.902 21.1677C227.599 31.8368 246.763 57.7052 246.763 77.3547V96.1598V96.1484Z" fill="black"/>
<path d="M1261.16 39.1742V146.847L1262.86 148.559H1429.28V180.463H1265.14C1264.52 180.463 1262.61 182.221 1261.16 181.604V297.824H1452V330.87H1224.81V7.84004L1226.51 6.12842H1448.02L1449.73 7.84004V37.4626L1448.02 39.1742H1261.16Z" fill="black"/>
<path d="M973.759 6.13965V186.169C1031.31 127.483 1085.4 65.3391 1142.45 6.13965H1186.19L1069.36 135.253L1191.86 330.869H1149.26L1042.47 162.24L973.747 232.314V330.869H937.397V6.13965H973.747H973.759Z" fill="black"/>
<path d="M295.616 6.1394L454.121 6.09376C568.035 5.75143 573.741 182.368 467.397 200.66C422.454 203.844 377.068 201.299 331.966 202.109V330.858H295.616V6.1394ZM331.966 170.205H449.54C515.454 170.205 527.298 62.2693 471.17 42.5514C469.193 41.8553 459.94 39.1738 458.633 39.1738H331.977V170.205H331.966Z" fill="black"/>
<path d="M756.569 0.776381C904.537 -7.05146 938.659 150.27 857.241 253.298C787.645 341.367 619.24 382.64 566.898 257.577C517.136 138.654 639.04 6.99529 756.569 0.776381ZM604.987 299.695C661.216 353.383 771.937 285.317 813.628 239.172C854.309 194.145 911.505 75.1751 845.102 30.9352C780.916 -11.8212 678.345 52.6729 636.426 103.588C599.985 147.851 555.259 252.214 604.987 299.695Z" fill="black"/>
</svg>
